<svg xmlns="http://www.w3.org/2000/svg" width="38.206" height="25.155" viewBox="0 0 38.206 25.155">
  <g id="delivery-truck_1_" data-name="delivery-truck (1)" transform="translate(0 -0.301)">
    <path id="Path_40" data-name="Path 40" d="M0,173.009H1.886a4.644,4.644,0,0,1,9.08,0H24.3V166.2H0Zm0,0" transform="translate(0 -151.414)" fill="#3a7692"/>
    <path id="Path_41" data-name="Path 41" d="M367.469,74.385l-5.16-4.776L362.3,69.6v4.784Zm0,0" transform="translate(-330.669 -63.25)" fill="#3a7692"/>
    <path id="Path_42" data-name="Path 42" d="M303.889,64.08a1.751,1.751,0,0,1-1.746-1.746V56.563a4.273,4.273,0,0,0-1.2-.166H298.3V72.8h1.249a4.644,4.644,0,0,1,9.08,0h1.833V65.547a4.336,4.336,0,0,0-.253-1.458Zm0,0" transform="translate(-272.257 -51.199)" fill="#3a7692"/>
    <path id="Path_43" data-name="Path 43" d="M46.281,225.052a2.89,2.89,0,1,1-2.944-2.834,2.89,2.89,0,0,1,2.944,2.834Zm0,0" transform="translate(-36.966 -202.541)" fill="#3a7692"/>
    <path id="Path_44" data-name="Path 44" d="M337.28,225.089a2.89,2.89,0,1,1-2.89-2.89,2.89,2.89,0,0,1,2.89,2.89Zm0,0" transform="translate(-302.557 -202.525)" fill="#3a7692"/>
    <path id="Path_45" data-name="Path 45" d="M24.3,2.92A2.627,2.627,0,0,0,21.679.3H2.619A2.627,2.627,0,0,0,0,2.92V13.039H24.3Z" transform="translate(0)" fill="#3a7692"/>
  </g>
</svg>
