<svg xmlns="http://www.w3.org/2000/svg" width="34.016" height="36.436" viewBox="0 0 34.016 36.436">
  <g id="shipping-and-delivery" transform="translate(-0.5 0)">
    <path id="Path_49" data-name="Path 49" d="M6.158,4.922V24.094a7.494,7.494,0,0,1,4.7-.146V3.973A3.967,3.967,0,0,0,6.892,0H2.847a2.355,2.355,0,0,0,0,4.71h3.1a.212.212,0,0,1,.212.212Zm0,0" transform="translate(0 0)" fill="#3a7692"/>
    <path id="Path_50" data-name="Path 50" d="M231.617,410.76a2.335,2.335,0,0,0-1.66-.69H213.729a7.495,7.495,0,0,1-.287,4.71h16.515a2.356,2.356,0,0,0,1.66-4.02Zm0,0" transform="translate(-197.788 -380.888)" fill="#3a7692"/>
    <path id="Path_51" data-name="Path 51" d="M46.736,362.2a5.33,5.33,0,1,0,5.314,5.33A5.322,5.322,0,0,0,46.736,362.2Zm1.134,5.974a1.134,1.134,0,0,1-2.268,0v-1.287a1.134,1.134,0,1,1,2.268,0Zm0,0" transform="translate(-38.01 -336.42)" fill="#3a7692"/>
    <path id="Path_52" data-name="Path 52" d="M194.763,117.695a2.306,2.306,0,0,0-2.3-2.3H175.988v16.7a7.551,7.551,0,0,1,2.063,2.131h16.712Zm-5.635,9.357a1.067,1.067,0,1,1-1.509,1.51l-2.243-2.243-2.243,2.243a1.067,1.067,0,1,1-1.509-1.51l2.243-2.243-2.243-2.243a1.067,1.067,0,1,1,1.509-1.51l2.243,2.243,2.243-2.243a1.068,1.068,0,0,1,1.51,1.51l-2.243,2.243Zm0,0" transform="translate(-163 -107.179)" fill="#3a7692"/>
  </g>
</svg>
